<svg width="24" height="24" viewBox="0 0 24 24" fill="none" xmlns="http://www.w3.org/2000/svg">
<path d="M9.00001 5H7.00001C6.46957 5 5.96087 5.21071 5.58579 5.58579C5.21072 5.96086 5.00001 6.46957 5.00001 7V19C5.00001 19.5304 5.21072 20.0391 5.58579 20.4142C5.96087 20.7893 6.46957 21 7.00001 21H17C17.5304 21 18.0391 20.7893 18.4142 20.4142C18.7893 20.0391 19 19.5304 19 19V7C19 6.46957 18.7893 5.96086 18.4142 5.58579C18.0391 5.21071 17.5304 5 17 5H15M9.00001 5C9.00001 5.53043 9.21072 6.03914 9.58579 6.41421C9.96087 6.78929 10.4696 7 11 7H13C13.5304 7 14.0391 6.78929 14.4142 6.41421C14.7893 6.03914 15 5.53043 15 5M9.00001 5C9.00001 4.46957 9.21072 3.96086 9.58579 3.58579C9.96087 3.21071 10.4696 3 11 3H13C13.5304 3 14.0391 3.21071 14.4142 3.58579C14.7893 3.96086 15 4.46957 15 5M12 12H15M12 16H15M9.00001 12H9.01001M9.00001 16H9.01001" stroke="currentColor" stroke-width="2" fill="none"/>
</svg>
