<svg width="14" height="14" viewBox="0 0 14 14" fill="none" xmlns="http://www.w3.org/2000/svg">
<path fill-rule="evenodd" clip-rule="evenodd" d="M3.00509 3.00508C3.13636 2.87385 3.31438 2.80013 3.49999 2.80013C3.68561 2.80013 3.86362 2.87385 3.99489 3.00508L6.99999 6.01018L10.0051 3.00508C10.0697 2.93823 10.1469 2.8849 10.2323 2.84821C10.3177 2.81153 10.4096 2.79222 10.5025 2.79141C10.5955 2.7906 10.6876 2.80831 10.7737 2.84351C10.8597 2.8787 10.9378 2.93068 11.0036 2.99641C11.0693 3.06213 11.1213 3.14029 11.1565 3.22632C11.1917 3.31234 11.2094 3.40452 11.2086 3.49746C11.2078 3.59041 11.1884 3.68226 11.1518 3.76767C11.1151 3.85307 11.0617 3.93031 10.9949 3.99488L7.98979 6.99998L10.9949 10.0051C11.1224 10.1371 11.193 10.3139 11.1914 10.4975C11.1898 10.681 11.1161 10.8566 10.9864 10.9864C10.8566 11.1161 10.681 11.1898 10.4975 11.1914C10.3139 11.193 10.1371 11.1224 10.0051 10.9949L6.99999 7.98978L3.99489 10.9949C3.86287 11.1224 3.68605 11.193 3.50251 11.1914C3.31897 11.1898 3.1434 11.1161 3.01362 10.9864C2.88383 10.8566 2.81021 10.681 2.80862 10.4975C2.80702 10.3139 2.87758 10.1371 3.00509 10.0051L6.01019 6.99998L3.00509 3.99488C2.87386 3.86361 2.80014 3.6856 2.80014 3.49998C2.80014 3.31437 2.87386 3.13635 3.00509 3.00508Z" fill="currentColor"/>
</svg>
