<svg width="28" height="28" viewBox="0 0 28 28" fill="none" xmlns="http://www.w3.org/2000/svg">
<g id="CreditCardOutline">
<path id="Vector" d="M3.5 11.6668H24.5M8.16667 17.5002H9.33333M14 17.5002H15.1667M7 22.1668H21C21.9283 22.1668 22.8185 21.7981 23.4749 21.1417C24.1313 20.4853 24.5 19.5951 24.5 18.6668V9.3335C24.5 8.40524 24.1313 7.515 23.4749 6.85862C22.8185 6.20225 21.9283 5.8335 21 5.8335H7C6.07174 5.8335 5.1815 6.20225 4.52513 6.85862C3.86875 7.515 3.5 8.40524 3.5 9.3335V18.6668C3.5 19.5951 3.86875 20.4853 4.52513 21.1417C5.1815 21.7981 6.07174 22.1668 7 22.1668Z" stroke="black" stroke-width="2" stroke-linecap="round" stroke-linejoin="round"/>
</g>
</svg>
