<svg width="28" height="28" viewBox="0 0 28 28" fill="none" xmlns="http://www.w3.org/2000/svg">
<g id="ChatAlt2Outline">
<path id="Vector" d="M19.8333 9.33317H22.1667C22.7855 9.33317 23.379 9.579 23.8166 10.0166C24.2542 10.4542 24.5 11.0477 24.5 11.6665V18.6665C24.5 19.2853 24.2542 19.8788 23.8166 20.3164C23.379 20.754 22.7855 20.9998 22.1667 20.9998H19.8333V25.6665L15.1667 20.9998H10.5C10.1935 21.0002 9.89006 20.9399 9.60696 20.8226C9.32385 20.7053 9.06672 20.5332 8.85033 20.3162M8.85033 20.3162L12.8333 16.3332H17.5C18.1188 16.3332 18.7123 16.0873 19.1499 15.6498C19.5875 15.2122 19.8333 14.6187 19.8333 13.9998V6.99984C19.8333 6.381 19.5875 5.78751 19.1499 5.34992C18.7123 4.91234 18.1188 4.6665 17.5 4.6665H5.83333C5.21449 4.6665 4.621 4.91234 4.18342 5.34992C3.74583 5.78751 3.5 6.381 3.5 6.99984V13.9998C3.5 14.6187 3.74583 15.2122 4.18342 15.6498C4.621 16.0873 5.21449 16.3332 5.83333 16.3332H8.16667V20.9998L8.85033 20.3162Z" stroke="black" stroke-width="2" stroke-linecap="round" stroke-linejoin="round"/>
</g>
</svg>
