<svg width="33" height="32" viewBox="0 0 33 32" fill="none" xmlns="http://www.w3.org/2000/svg">
<path d="M17.5062 3.6689C17.2062 3.36894 16.7993 3.20044 16.375 3.20044C15.9507 3.20044 15.5438 3.36894 15.2438 3.6689L4.0438 14.8689C3.75235 15.1707 3.59108 15.5748 3.59473 15.9943C3.59837 16.4139 3.76664 16.8152 4.06329 17.1118C4.35995 17.4085 4.76125 17.5767 5.18076 17.5804C5.60028 17.584 6.00444 17.4227 6.3062 17.1313L6.775 16.6625V27.2001C6.775 27.6244 6.94358 28.0314 7.24363 28.3315C7.54369 28.6315 7.95066 28.8001 8.375 28.8001H11.575C11.9994 28.8001 12.4063 28.6315 12.7064 28.3315C13.0064 28.0314 13.175 27.6244 13.175 27.2001V24.0001C13.175 23.5758 13.3436 23.1688 13.6436 22.8687C13.9437 22.5687 14.3507 22.4001 14.775 22.4001H17.975C18.3994 22.4001 18.8063 22.5687 19.1064 22.8687C19.4064 23.1688 19.575 23.5758 19.575 24.0001V27.2001C19.575 27.6244 19.7436 28.0314 20.0436 28.3315C20.3437 28.6315 20.7507 28.8001 21.175 28.8001H24.375C24.7993 28.8001 25.2063 28.6315 25.5064 28.3315C25.8064 28.0314 25.975 27.6244 25.975 27.2001V16.6625L26.4438 17.1313C26.7456 17.4227 27.1497 17.584 27.5692 17.5804C27.9888 17.5767 28.3901 17.4085 28.6867 17.1118C28.9834 16.8152 29.1516 16.4139 29.1553 15.9943C29.1589 15.5748 28.9977 15.1707 28.7062 14.8689L17.5062 3.6689Z" fill="currentColor"/>
</svg>
