<svg width="33" height="32" viewBox="0 0 33 32" fill="none" xmlns="http://www.w3.org/2000/svg">
<path d="M28.6875 28L20.6875 20M23.3542 13.3333C23.3542 14.559 23.1128 15.7727 22.6437 16.905C22.1747 18.0374 21.4872 19.0663 20.6205 19.933C19.7538 20.7997 18.7249 21.4872 17.5925 21.9562C16.4602 22.4253 15.2465 22.6667 14.0208 22.6667C12.7952 22.6667 11.5815 22.4253 10.4491 21.9562C9.31675 21.4872 8.28785 20.7997 7.42117 19.933C6.55449 19.0663 5.867 18.0374 5.39796 16.905C4.92891 15.7727 4.6875 14.559 4.6875 13.3333C4.6875 10.858 5.67083 8.48401 7.42117 6.73367C9.17151 4.98333 11.5455 4 14.0208 4C16.4962 4 18.8702 4.98333 20.6205 6.73367C22.3708 8.48401 23.3542 10.858 23.3542 13.3333Z" stroke="currentColor" stroke-width="2" />
</svg>
