<svg width="28" height="28" viewBox="0 0 28 28" fill="none" xmlns="http://www.w3.org/2000/svg">
<g id="SpeakerphoneOutline">
<path id="Vector" d="M12.8333 6.86233V22.4467C12.833 22.9302 12.662 23.3981 12.3505 23.768C12.039 24.1378 11.607 24.3859 11.1305 24.4684C10.6541 24.5509 10.1638 24.4627 9.74602 24.2192C9.32825 23.9757 9.00983 23.5926 8.84684 23.1373L6.342 15.9623M6.342 15.9623C5.35176 15.5413 4.53739 14.7922 4.0367 13.8398C3.53602 12.8873 3.37978 11.7911 3.59443 10.7367C3.80907 9.6823 4.38141 8.73443 5.2146 8.0535C6.04778 7.37257 7.09063 7.00041 8.16667 7H10.304C15.0873 7 19.1998 5.56033 21 3.5V19.8333C19.1998 17.773 15.0885 16.3333 10.304 16.3333H8.16667C7.53974 16.3342 6.9191 16.2073 6.342 15.9623ZM21 15.1667C21.9283 15.1667 22.8185 14.7979 23.4749 14.1415C24.1313 13.4852 24.5 12.5949 24.5 11.6667C24.5 10.7384 24.1313 9.84817 23.4749 9.19179C22.8185 8.53542 21.9283 8.16667 21 8.16667" stroke="black" stroke-width="2" stroke-linecap="round" stroke-linejoin="round"/>
</g>
</svg>
