<svg width="12" height="12" viewBox="0 0 12 12" fill="none" xmlns="http://www.w3.org/2000/svg">
<path d="M5.5245 1.46354C5.6745 1.00304 6.326 1.00304 6.4755 1.46354L7.235 3.80054C7.26769 3.90078 7.33123 3.98813 7.41654 4.05009C7.50185 4.11205 7.60456 4.14546 7.71 4.14554H10.1675C10.652 4.14554 10.853 4.76554 10.4615 5.05054L8.4735 6.49454C8.38811 6.55662 8.32455 6.64414 8.29195 6.74456C8.25934 6.84497 8.25936 6.95313 8.292 7.05354L9.051 9.39054C9.201 9.85154 8.6735 10.2345 8.282 9.94954L6.294 8.50554C6.20856 8.44343 6.10564 8.40997 6 8.40997C5.89437 8.40997 5.79145 8.44343 5.706 8.50554L3.718 9.94954C3.3265 10.2345 2.799 9.85104 2.949 9.39054L3.708 7.05354C3.74064 6.95313 3.74066 6.84497 3.70806 6.74456C3.67545 6.64414 3.6119 6.55662 3.5265 6.49454L1.5385 5.05054C1.1465 4.76554 1.3485 4.14554 1.8325 4.14554H4.2895C4.39503 4.14557 4.49785 4.11221 4.58326 4.05024C4.66867 3.98827 4.73229 3.90086 4.765 3.80054L5.5245 1.46354Z" stroke="currentColor" stroke-width="1" stroke-linecap="round" stroke-linejoin="round"/>
</svg>
