<svg width="33" height="32" viewBox="0 0 33 32" fill="none" xmlns="http://www.w3.org/2000/svg">
<path d="M20.3957 19.7707C19.3955 20.7705 18.0392 21.3322 16.625 21.3322C15.2108 21.3322 13.8545 20.7705 12.8543 19.7707M12.625 13.3333H12.6383M20.625 13.3333H20.6383M28.625 16C28.625 17.5759 28.3146 19.1363 27.7116 20.5922C27.1085 22.0481 26.2246 23.371 25.1103 24.4853C23.996 25.5996 22.6731 26.4835 21.2172 27.0866C19.7613 27.6896 18.2009 28 16.625 28C15.0491 28 13.4887 27.6896 12.0328 27.0866C10.5769 26.4835 9.25402 25.5996 8.13972 24.4853C7.02542 23.371 6.1415 22.0481 5.53845 20.5922C4.93539 19.1363 4.625 17.5759 4.625 16C4.625 12.8174 5.88928 9.76516 8.13972 7.51472C10.3902 5.26428 13.4424 4 16.625 4C19.8076 4 22.8598 5.26428 25.1103 7.51472C27.3607 9.76516 28.625 12.8174 28.625 16Z" stroke="currentColor" stroke-width="2" stroke-linecap="round" stroke-linejoin="round"/>
</svg>
